<?xml version="1.0" standalone="no"?><!DOCTYPE svg PUBLIC "-//W3C//DTD SVG 1.1//EN" "http://www.w3.org/Graphics/SVG/1.1/DTD/svg11.dtd"><svg t="1704442579630" class="icon" viewBox="0 0 1024 1024" version="1.1" xmlns="http://www.w3.org/2000/svg" p-id="14962" xmlns:xlink="http://www.w3.org/1999/xlink" width="200" height="200"><path d="M921.219657 398.350629c-20.977371-14.906514-50.644114-9.757257-65.477486 11.307885-14.833371 21.079771-9.713371 50.907429 11.264 65.799315 38.868114 27.2384 61.878857 73.508571 61.878858 123.874742 0 80.705829-59.845486 147.017143-133.500343 147.017143h-87.478857c58.324114-60.664686 94.646857-144.969143 94.646857-238.006857 0-182.974171-140.156343-332.039314-312.539429-332.039314-121.738971 0-227.620571 74.532571-279.274057 182.9888C93.608229 367.5136 0 471.8592 0 599.3472c0 132.608 101.7856 241.0496 227.620571 241.0496h568.276115c125.322971 0 227.620571-107.9296 227.620571-241.064229-0.512-81.217829-38.370743-156.2624-102.2976-200.981942zM93.608229 599.3472c0-63.239314 36.820114-117.204114 87.976228-137.771886a353.309257 353.309257 0 0 0-3.072 46.782172 47.045486 47.045486 0 1 0 94.120229 0c0-131.072 98.2016-237.992229 218.404571-237.992229 120.202971 0 218.404571 106.920229 218.404572 237.992229 0 131.072-98.2016 237.9776-218.404572 237.9776H227.620571c-74.166857-0.512-134.012343-66.296686-134.012342-147.002515z" fill="currentColor" p-id="14963"></path></svg>
