<svg t="1704441987212" class="icon" viewBox="0 0 1024 1024" version="1.1" xmlns="http://www.w3.org/2000/svg" p-id="8303" width="200" height="200"><path d="M512.570537 38.600911s-78.538508 175.562418-127.148269 227.464994c1.010666-0.358623 17.246522-6.520424 37.948868-16.822694 18.485402 26.081696 89.068993 130.115063 89.068993 204.415295 0-74.300232 70.583591-178.431405 89.068993-204.415295 20.702346 10.139259 36.938202 16.30106 37.948868 16.822694-48.348945-51.902576-126.887453-227.464994-126.887453-227.464994z m0 344.213187a347.929829 347.929829 0 0 0-44.045465-158.804929c19.333057-12.649623 36.481773-27.190168 44.045465-42.089337 7.563692 14.899169 24.712407 29.341908 44.045465 42.089337a347.929829 347.929829 0 0 0-44.045465 158.804929zM922.248782 275.781337S730.93954 295.570824 661.823044 279.53058c0.815053 0.684645 14.410137 11.606355 33.51498 24.451591-13.236461 28.983285-68.138432 142.177847-132.462415 179.311662 64.323984-37.166417 189.809545-28.103028 221.694419-25.071031 1.597504 22.984495 4.238276 40.231017 4.433888 41.274285 20.474132-67.910217 133.244866-223.71575 133.244866-223.71575z m-298.113789 172.106593a347.473399 347.473399 0 0 0 115.509313-117.367633c20.637142 10.400076 41.795918 17.99637 58.488204 17.083511-9.128594 14.018912-13.040848 36.123149-14.44274 59.20545-87.210672 0.032602-155.349104 38.666115-159.554777 41.078672zM921.661944 749.196727s-112.770735-155.838136-133.473081-223.748352c-0.195613 1.043268-2.836384 18.28979-4.401286 41.274284-31.754465 3.031997-157.207425 12.095387-221.694419-25.07103 64.356586 37.166417 119.225954 150.328377 132.495017 179.311662-19.137445 12.845235-32.60212 23.766946-33.547582 24.45159 69.246904-16.007641 260.621351 3.781846 260.621351 3.781846zM623.580757 577.057531a348.158044 348.158044 0 0 0 159.554777 41.241683c1.271483 23.082301 5.314146 45.186539 14.410138 59.20545-16.659684-0.912859-37.851062 6.520424-58.455602 17.083511A348.09284 348.09284 0 0 0 623.580757 577.057531zM511.429463 985.366487s78.538508-175.562418 127.148269-227.464994c-1.010666 0.358623-17.246522 6.683435-37.948868 16.822694-18.485402-26.081696-89.068993-130.115063-89.068993-204.415295 0 74.300232-70.583591 178.431405-89.068993 204.415295-20.702346-10.139259-36.938202-16.30106-37.948868-16.822694 48.348945 51.902576 126.887453 227.464994 126.887453 227.464994z m0-344.213187a347.929829 347.929829 0 0 0 44.045465 158.804929c-19.333057 12.649623-36.481773 27.190168-44.045465 42.089337-7.563692-14.899169-24.712407-29.341908-44.045465-42.089337a347.929829 347.929829 0 0 0 44.045465-158.804929zM101.751218 748.186061s191.309243-19.756885 260.490942-3.716641c-0.815053-0.717247-14.410137-11.606355-33.547582-24.451591 13.269063-29.015887 68.171034-142.210449 132.495017-179.311662-64.323984 37.133815-189.809545 28.070426-221.694418 25.071031-1.564902-23.017097-4.205674-40.231017-4.401287-41.274285-20.571938 67.910217-133.342672 223.683148-133.342672 223.683148z m298.081187-172.106593a347.995033 347.995033 0 0 0-115.509313 117.563246c-20.60454-10.432679-41.763316-17.99637-58.455602-17.116113 9.128594-13.98631 13.040848-36.123149 14.410137-59.172849a347.962431 347.962431 0 0 0 159.554778-41.274284zM102.305454 274.803273s112.770735 155.805533 133.668694 223.748352c0.195613-1.07587 2.836384-18.28979 4.401286-41.274284 31.721863-3.031997 157.207425-12.095387 221.694419 25.07103-64.356586-37.166417-119.258556-150.360979-132.495018-179.311662 19.137445-13.040848 32.60212-23.766946 33.547582-24.45159-69.507721 15.975039-260.816963-3.781846-260.816963-3.781846z m298.113789 172.106594a347.701614 347.701614 0 0 0-159.554777-41.241683c-1.304085-23.082301-5.314146-45.186539-14.44274-59.20545 16.692286 0.912859 37.851062-6.520424 58.488204-17.083511a348.09284 348.09284 0 0 0 115.509313 117.530644z" p-id="8304" fill="currentColor"></path><path d="M512.570537 515.276513m-18.420198 0a18.420198 18.420198 0 1 0 36.840396 0 18.420198 18.420198 0 1 0-36.840396 0Z" p-id="8305" fill="#ffffff"></path><path d="M501.583623 449.909262l6.520424 57.444936-46.58843-34.232227a50.957114 50.957114 0 0 1-20.767551-39.122544l-1.467096-40.296221a3.260212 3.260212 0 0 1 4.694706-2.705976l34.167022 21.386991a50.989716 50.989716 0 0 1 23.440925 37.525041zM563.788468 473.024165l-46.58843 34.232226 6.324812-57.347129a51.120125 51.120125 0 0 1 23.636537-37.655449l34.167022-21.386991a3.064599 3.064599 0 0 1 4.662103 2.705976l-1.434493 40.29622a50.957114 50.957114 0 0 1-20.767551 39.155147zM574.742781 538.521825l-52.913242-23.245312 52.913242-23.245312a50.924512 50.924512 0 0 1 44.404088 1.662708l35.601515 18.876628a3.064599 3.064599 0 0 1 0 5.411952l-35.601515 18.876628a51.022318 51.022318 0 0 1-44.404088 1.662708zM523.52485 580.741571l-6.324812-57.444936L563.788468 557.496259a51.022318 51.022318 0 0 1 20.767551 39.285555l1.434493 40.263619a3.031997 3.031997 0 0 1-4.662103 2.705976l-34.167022-21.386991a51.120125 51.120125 0 0 1-23.636537-37.622847zM461.352606 557.496259l46.58843-34.199624-6.520424 57.444936a50.957114 50.957114 0 0 1-23.603935 37.622847l-34.167022 21.386991a3.064599 3.064599 0 0 1-4.694706-2.705976l1.467096-40.263619a51.022318 51.022318 0 0 1 20.930561-39.285555zM450.398293 492.031201l52.913242 23.245312-52.913242 23.245312a51.022318 51.022318 0 0 1-44.404088-1.662708l-35.601515-18.876628a3.064599 3.064599 0 0 1 0-5.411952l35.601515-18.876628a50.924512 50.924512 0 0 1 44.404088-1.662708z" p-id="8306" fill="#ffffff"></path></svg>
